<?xml version="1.0" encoding="UTF-8"?> <svg xmlns="http://www.w3.org/2000/svg" width="61" height="17" viewBox="0 0 61 17" fill="none"><g opacity="0.75"><path d="M14.82 16.9992C14.2351 16.9992 13.6743 16.9185 13.1359 16.7551C12.5975 16.5918 12.1094 16.3646 11.6697 16.068C11.2319 15.7732 10.8425 15.424 10.5035 15.0204L11.5654 13.9503C11.9957 14.4778 12.4838 14.8683 13.0316 15.1255C13.5774 15.3809 14.1885 15.5085 14.8666 15.5085C15.5447 15.5085 16.1316 15.3696 16.5396 15.0899C16.9476 14.8101 17.1506 14.4234 17.1506 13.9259C17.1506 13.4603 17.0091 13.0998 16.724 12.8445C16.439 12.5892 16.0664 12.3789 15.6044 12.2155C15.1423 12.0522 14.658 11.8983 14.1494 11.7499C13.6408 11.6035 13.1601 11.4158 12.7074 11.1924C12.2528 10.9671 11.8802 10.6573 11.5877 10.2612C11.2953 9.86502 11.1499 9.33371 11.1499 8.66723C11.1499 8.04768 11.3027 7.50887 11.612 7.05078C11.9194 6.59269 12.3497 6.23598 12.9049 5.98065C13.4582 5.72532 14.1289 5.59766 14.9132 5.59766C15.6975 5.59766 16.4669 5.74597 17.1283 6.03885C17.7896 6.3336 18.3206 6.76729 18.7211 7.34178L17.6592 8.4119C17.3518 7.99324 16.955 7.66845 16.4706 7.43565C15.9863 7.20285 15.4441 7.08645 14.8443 7.08645C14.1512 7.08645 13.624 7.22162 13.2626 7.49385C12.9012 7.76607 12.7204 8.11903 12.7204 8.55271C12.7204 8.98639 12.8658 9.3018 13.1582 9.54211C13.4507 9.78242 13.8233 9.97579 14.2779 10.1241C14.7325 10.2724 15.2131 10.4189 15.7199 10.5653C16.2285 10.7136 16.7128 10.907 17.1749 11.1473C17.6369 11.3876 18.0095 11.7143 18.2945 12.1236C18.5796 12.5347 18.7211 13.0885 18.7211 13.7869C18.7211 14.7632 18.3709 15.5423 17.6704 16.1243C16.9699 16.7063 16.0198 16.9973 14.82 16.9973V16.9992Z" fill="white"></path><path d="M25.5602 16.9994C24.4983 16.9994 23.5407 16.7478 22.6856 16.2428C21.8324 15.7396 21.158 15.0525 20.6662 14.1851C20.1743 13.3177 19.9284 12.3471 19.9284 11.277C19.9284 10.2069 20.1743 9.24187 20.6662 8.38014C21.158 7.52028 21.8324 6.84066 22.6856 6.34502C23.5389 5.84938 24.4983 5.60156 25.5602 5.60156C26.3911 5.60156 27.1605 5.75739 27.8685 6.06716C28.5764 6.37694 29.1763 6.81062 29.6681 7.37009L28.5839 8.48715C28.215 8.06849 27.7716 7.74745 27.2574 7.52216C26.7414 7.29687 26.1769 7.18422 25.5602 7.18422C24.8057 7.18422 24.1295 7.36258 23.5296 7.71929C22.9297 8.076 22.4602 8.56037 22.1211 9.17241C21.7821 9.78444 21.6126 10.4866 21.6126 11.277C21.6126 12.0674 21.7821 12.777 22.1211 13.406C22.4602 14.033 22.9297 14.5268 23.5296 14.8835C24.1295 15.2402 24.8076 15.4186 25.5602 15.4186C26.175 15.4186 26.7451 15.3059 27.2686 15.0806C27.7921 14.8553 28.2448 14.5343 28.6304 14.1156L29.7147 15.2083C29.2061 15.7828 28.5951 16.224 27.8797 16.5338C27.1643 16.8435 26.3911 16.9994 25.5602 16.9994Z" fill="white"></path><path d="M35.911 16.9993C34.8491 16.9993 33.8952 16.7439 33.0494 16.2314C32.2036 15.7189 31.5292 15.0299 31.03 14.1606C30.5307 13.2933 30.2792 12.3226 30.2792 11.2525C30.2792 10.1824 30.5288 9.24367 31.03 8.39133C31.5292 7.53898 32.2036 6.85936 33.0494 6.35621C33.8952 5.85306 34.8491 5.59961 35.911 5.59961C36.9729 5.59961 37.9081 5.84743 38.7614 6.34307C39.6146 6.8387 40.2928 7.51833 40.792 8.37819C41.2913 9.23804 41.5428 10.1974 41.5428 11.2506C41.5428 12.3039 41.2932 13.3083 40.792 14.17C40.2928 15.0299 39.6146 15.717 38.7614 16.2277C37.9081 16.7402 36.9561 16.9955 35.911 16.9955V16.9993ZM35.911 15.4166C36.6655 15.4166 37.3418 15.2383 37.9417 14.8816C38.5416 14.5248 39.011 14.0292 39.3501 13.3928C39.6892 12.7563 39.8587 12.0429 39.8587 11.2525C39.8587 10.4621 39.6854 9.78249 39.3389 9.17045C38.9924 8.55842 38.5229 8.07404 37.9305 7.71733C37.3381 7.36063 36.6655 7.18227 35.911 7.18227C35.1565 7.18227 34.4802 7.36063 33.8803 7.71733C33.2805 8.07404 32.811 8.55842 32.4719 9.17045C32.1329 9.78249 31.9633 10.4771 31.9633 11.2525C31.9633 12.0279 32.1329 12.777 32.4719 13.404C32.811 14.0311 33.2805 14.5248 33.8803 14.8816C34.4802 15.2383 35.1584 15.4166 35.911 15.4166Z" fill="white"></path><path d="M47.8919 16.9989C47.0144 16.9989 46.2264 16.7924 45.5259 16.3831C44.8254 15.972 44.2833 15.4069 43.8977 14.6859C43.512 13.965 43.3201 13.1314 43.3201 12.1852V5.83203H44.9596V12.112C44.9596 12.7785 45.0788 13.3605 45.3173 13.8561C45.5557 14.3517 45.8985 14.7404 46.3438 15.0182C46.789 15.298 47.3051 15.4369 47.8901 15.4369C48.7973 15.4369 49.5127 15.1346 50.0362 14.5301C50.5597 13.9256 50.8205 13.1183 50.8205 12.1101V5.83203H52.46V12.1833C52.46 13.1295 52.2681 13.9669 51.8824 14.6953C51.4968 15.4237 50.9621 15.9907 50.2784 16.3925C49.5928 16.7961 48.7973 16.997 47.8901 16.997L47.8919 16.9989Z" fill="white"></path><path d="M53.9131 7.32065V5.83186H61V7.32065H53.9131ZM56.6368 16.7659V1.22656H58.2763V16.7659H56.6368Z" fill="white"></path><path d="M8.81213 4.43976C8.81213 1.87897 6.64919 -0.182435 4.06708 0.0128162C1.91346 0.176151 0.175286 1.92778 0.013206 4.09807C-0.180545 6.70017 1.86502 8.87985 4.40615 8.87985C5.52767 8.87985 6.55231 8.45368 7.33104 7.75528C7.40556 7.68769 7.5248 7.71398 7.56578 7.80785C7.70923 8.13827 7.78375 8.49686 7.78375 8.86859H9.15492C9.15492 8.02563 8.90155 7.22397 8.43021 6.54998C8.37805 6.47488 8.36873 6.37913 8.40786 6.29653C8.66681 5.73142 8.81213 5.10249 8.81213 4.43976ZM1.37692 4.64628C1.25396 2.76511 2.83005 1.21061 4.70795 1.39647C6.09029 1.53165 7.21927 2.6243 7.41115 4.01171C7.47077 4.44164 7.4391 4.85467 7.33477 5.23954C7.30683 5.3428 7.18759 5.39161 7.09445 5.34092C6.50574 5.0105 5.84251 4.83402 5.15134 4.83402V6.2158C5.57052 6.2158 5.97479 6.3153 6.33993 6.50117C6.44053 6.55186 6.4573 6.69454 6.36974 6.76776C5.79221 7.2634 5.02652 7.54689 4.19749 7.49056C2.69405 7.38918 1.47379 6.16135 1.37505 4.64628H1.37692Z" fill="#00FFAE"></path></g></svg> 