<?xml version="1.0" encoding="UTF-8"?> <svg xmlns="http://www.w3.org/2000/svg" width="59" height="18" viewBox="0 0 59 18" fill="none"><g opacity="0.75"><path d="M11.5227 17.7524V6.17517H13.1691V17.7504H11.5227V17.7524ZM19.0324 17.7524V10.6598C19.0324 9.70758 18.7611 8.9522 18.2204 8.39361C17.6798 7.83503 16.9988 7.55673 16.1812 7.55673C15.6255 7.55673 15.1185 7.68395 14.662 7.93839C14.2055 8.19284 13.8426 8.55065 13.5732 9.00985C13.3019 9.46904 13.1672 10.0117 13.1672 10.6359L12.4263 10.3159C12.4263 9.42928 12.6116 8.658 12.982 8.00002C13.3524 7.34403 13.8519 6.83514 14.4768 6.47335C15.1017 6.11156 15.8089 5.93066 16.5984 5.93066C17.3879 5.93066 18.0633 6.11156 18.6732 6.47335C19.2831 6.83514 19.7695 7.34403 20.1344 8.00002C20.4973 8.65601 20.6788 9.43723 20.6788 10.3397V17.7524H19.0324ZM26.5197 17.7524V10.6598C26.5197 9.70758 26.2484 8.9522 25.7077 8.39361C25.167 7.83503 24.486 7.55673 23.6684 7.55673C23.1278 7.55673 22.6282 7.68395 22.1736 7.93839C21.7171 8.19284 21.3542 8.55065 21.0848 9.00985C20.8135 9.46904 20.6788 10.0117 20.6788 10.6359L19.7059 10.3159C19.7527 9.42928 19.9716 8.658 20.3663 8.00002C20.7611 7.34403 21.2775 6.83514 21.9192 6.47335C22.5609 6.11156 23.2681 5.93066 24.0407 5.93066C24.8134 5.93066 25.5131 6.11156 26.138 6.47335C26.7647 6.83514 27.2587 7.34403 27.6216 8.00002C27.9846 8.65601 28.166 9.43723 28.166 10.3397V17.7524H26.5197Z" fill="white"></path><path d="M35.4531 17.9989C34.4335 17.9989 33.513 17.7325 32.6954 17.1978C31.876 16.6651 31.2268 15.9455 30.7478 15.043C30.2689 14.1405 30.0294 13.1227 30.0294 11.9896C30.0294 10.8566 30.2689 9.81095 30.7478 8.89853C31.2268 7.98809 31.8722 7.26451 32.6842 6.73177C33.4962 6.19902 34.411 5.93066 35.4306 5.93066C36.2651 5.93066 37.0097 6.10758 37.6682 6.45943C38.3249 6.81327 38.8618 7.30427 39.279 7.93641C39.6962 8.56854 39.9432 9.30405 40.0199 10.1409V13.7608C39.9264 14.5977 39.6757 15.3372 39.2659 15.9773C38.8562 16.6174 38.3268 17.1143 37.6776 17.4682C37.0284 17.822 36.2875 17.9969 35.4531 17.9969V17.9989ZM35.7075 16.349C36.8506 16.349 37.7618 15.9475 38.4428 15.1424C39.1219 14.3373 39.4624 13.2798 39.4624 11.9658C39.4624 11.0951 39.3071 10.3318 38.9984 9.67578C38.6897 9.01979 38.2482 8.50692 37.6776 8.13718C37.1051 7.76744 36.4409 7.58257 35.6832 7.58257C34.9255 7.58257 34.2501 7.77141 33.6552 8.14911C33.0602 8.5268 32.5888 9.04364 32.2408 9.70162C31.8928 10.3576 31.7188 11.115 31.7188 11.9678C31.7188 12.8206 31.8928 13.5779 32.2408 14.2339C32.5888 14.8899 33.064 15.4087 33.6664 15.7864C34.2688 16.1641 34.9498 16.353 35.7057 16.353L35.7075 16.349ZM39.3707 17.7524V14.6494L39.6962 11.7928L39.3707 9.00985V6.17716H41.0171V17.7524H39.3707Z" fill="white"></path><path d="M46.9234 17.999C46.336 17.999 45.7729 17.9135 45.2322 17.7406C44.6915 17.5676 44.2013 17.3271 43.7598 17.013C43.3201 16.7009 42.9291 16.3312 42.5886 15.9038L43.655 14.7707C44.0872 15.3293 44.5774 15.7428 45.1274 16.0151C45.6756 16.2855 46.2892 16.4206 46.9702 16.4206C47.6512 16.4206 48.2405 16.2735 48.6503 15.9773C49.06 15.6811 49.2639 15.2716 49.2639 14.7449C49.2639 14.2519 49.1217 13.8702 48.8355 13.5999C48.5492 13.3295 48.1751 13.1069 47.7111 12.9339C47.2471 12.761 46.7607 12.598 46.2499 12.4409C45.7392 12.2859 45.2565 12.0871 44.8019 11.8506C44.3454 11.612 43.9712 11.284 43.6775 10.8646C43.3837 10.4451 43.2378 9.88258 43.2378 9.1769C43.2378 8.5209 43.3912 7.95039 43.7018 7.46536C44.0105 6.98032 44.4427 6.60263 45.0002 6.33228C45.5558 6.06193 46.2294 5.92676 47.017 5.92676C47.8046 5.92676 48.5773 6.0838 49.2415 6.3939C49.9056 6.706 50.4388 7.16519 50.8411 7.77347L49.7747 8.90655C49.466 8.46326 49.0675 8.11936 48.581 7.87286C48.0946 7.62637 47.5502 7.50312 46.9478 7.50312C46.2518 7.50312 45.7223 7.64625 45.3594 7.93449C44.9964 8.22273 44.815 8.59644 44.815 9.05564C44.815 9.51483 44.9609 9.84879 45.2546 10.1032C45.5484 10.3577 45.9225 10.5624 46.379 10.7195C46.8355 10.8765 47.3182 11.0316 47.8271 11.1866C48.3378 11.3437 48.8243 11.5484 49.2882 11.8028C49.7522 12.0573 50.1264 12.4032 50.4126 12.8365C50.6989 13.2719 50.8411 13.8583 50.8411 14.5978C50.8411 15.6315 50.4893 16.4564 49.7859 17.0726C49.0824 17.6889 48.1283 17.997 46.9234 17.997V17.999Z" fill="white"></path><path d="M51.8831 7.7514V6.17503H58.9999V7.7514H51.8831ZM54.6183 17.7523V1.29883H56.2647V17.7523H54.6183Z" fill="white"></path><path d="M8.84942 4.70092C8.84942 1.98949 6.67733 -0.193166 4.08429 0.0135701C1.92156 0.186513 0.176026 2.04118 0.0132599 4.33914C-0.181311 7.0943 1.87291 9.40219 4.42479 9.40219C5.55106 9.40219 6.58004 8.95095 7.36207 8.21147C7.4369 8.13991 7.55664 8.16774 7.5978 8.26713C7.74186 8.61699 7.81669 8.99667 7.81669 9.39027H9.19366C9.19366 8.49772 8.93922 7.64891 8.46589 6.93527C8.4135 6.85576 8.40415 6.75438 8.44344 6.66691C8.70349 6.06857 8.84942 5.40264 8.84942 4.70092ZM1.38274 4.91959C1.25926 2.92776 2.84203 1.28182 4.72787 1.47862C6.11606 1.62174 7.24982 2.77867 7.44252 4.24769C7.50238 4.70291 7.47058 5.14024 7.36581 5.54775C7.33775 5.65708 7.21801 5.70877 7.12447 5.65509C6.53327 5.30523 5.86724 5.11837 5.17314 5.11837V6.58143C5.59409 6.58143 6.00007 6.68679 6.36676 6.88359C6.46779 6.93726 6.48463 7.08833 6.3967 7.16586C5.81672 7.69065 5.04779 7.99082 4.21525 7.93118C2.70545 7.82384 1.48003 6.52378 1.38087 4.91959H1.38274Z" fill="#00FFAE"></path></g></svg> 