<?xml version="1.0" encoding="UTF-8"?> <svg xmlns="http://www.w3.org/2000/svg" width="128" height="35" viewBox="0 0 128 35" fill="none"><path fill-rule="evenodd" clip-rule="evenodd" d="M38.1829 33.8751L43.7175 26.6765H20.8869C20.1233 26.6787 19.3605 26.6246 18.6047 26.5146C17.8802 26.4063 17.1654 26.2399 16.4673 26.0169C15.8018 25.8023 15.1555 25.5316 14.5353 25.2077C13.9408 24.9009 13.3785 24.5349 12.8568 24.1151C12.3441 23.7088 11.8771 23.2475 11.4641 22.7393C11.057 22.2323 10.7074 21.6813 10.4216 21.0965C10.131 20.5002 9.91213 19.8713 9.76952 19.223C9.62467 18.5584 9.55179 17.8801 9.55216 17.1998C9.5517 16.511 9.6273 15.8243 9.77757 15.1523C9.92544 14.4957 10.1525 13.8598 10.4538 13.2586C11.0357 12.0805 11.8587 11.0394 12.8689 10.2035C13.3852 9.77307 13.9435 9.39618 14.5353 9.07859C15.1517 8.74689 15.7954 8.46935 16.4593 8.24908C17.1581 8.01424 17.876 7.84094 18.6047 7.73113C19.3611 7.61289 20.1255 7.55471 20.891 7.55714H37.555V3.91535H44.8003V0.273568H48.4229V3.91535H44.8003V7.55714H48.6322L59.3431 23.4353L60.128 24.6007L60.933 23.4515L77.267 0.249289H117.889L112.294 7.53286H82.6647L82.3709 7.9375L70.1506 25.3331L66.2462 30.8848C65.901 31.3632 65.5115 31.8076 65.0829 32.212C64.6201 32.6484 64.1293 33.054 63.6137 33.4259C63.1249 33.7722 62.5802 34.031 62.0037 34.1907C61.3331 34.3794 60.6391 34.4707 59.9428 34.4618C59.2639 34.4684 58.5871 34.384 57.9303 34.211C57.3669 34.0622 56.8332 33.8172 56.3524 33.4866C55.8497 33.1438 55.3807 32.7536 54.9517 32.3213C54.5175 31.8824 54.1229 31.4058 53.7723 30.8969L37.9736 7.97392L37.6798 7.56928H41.1857V0.245243H20.8869C19.4499 0.241035 18.0145 0.342467 16.5921 0.548725C15.2599 0.738739 13.9457 1.04058 12.6636 1.45108C11.4613 1.82938 10.2948 2.31415 9.17782 2.8997C8.13547 3.45071 7.14988 4.10402 6.23545 4.85008C5.36117 5.56104 4.56381 6.36261 3.8566 7.24152C3.15484 8.11777 2.54892 9.06741 2.04931 10.074C1.54475 11.0782 1.16488 12.1409 0.918248 13.2383C0.660686 14.3855 0.53375 15.5584 0.539885 16.7344C0.537143 17.9089 0.66404 19.0801 0.918248 20.2265C1.16917 21.3471 1.55155 22.4337 2.05736 23.4636C2.55731 24.5 3.16443 25.4806 3.86867 26.3892C4.57435 27.305 5.37295 28.1444 6.25155 28.8939C7.16626 29.6739 8.15441 30.3623 9.20197 30.9495C10.3171 31.5733 11.4832 32.0999 12.6877 32.5236C13.9627 32.9705 15.2747 33.3023 16.6082 33.515C18.0232 33.7415 19.4541 33.8525 20.8869 33.8468H38.195L38.1829 33.8751ZM52.0817 0.245243V3.88703H55.7044V0.245243H52.0817ZM99.8359 13.7522H84.1379V33.8711H112.459L117.989 26.6765H93.1945V19.8866H111.139L115.912 13.7522H99.8359Z" fill="url(#paint0_linear_1042_381)"></path><path d="M123.73 0.95166C124.291 0.95166 124.838 1.09683 125.372 1.38716C125.905 1.67454 126.321 2.08782 126.619 2.62702C126.917 3.16325 127.066 3.72319 127.066 4.30682C127.066 4.88453 126.918 5.44002 126.624 5.9733C126.332 6.50657 125.92 6.92133 125.389 7.21759C124.861 7.51089 124.308 7.65754 123.73 7.65754C123.152 7.65754 122.598 7.51089 122.067 7.21759C121.539 6.92133 121.127 6.50657 120.833 5.9733C120.538 5.44002 120.39 4.88453 120.39 4.30682C120.39 3.72319 120.539 3.16325 120.837 2.62702C121.138 2.08782 121.555 1.67454 122.089 1.38716C122.623 1.09683 123.17 0.95166 123.73 0.95166ZM123.73 1.50715C123.261 1.50715 122.804 1.62862 122.359 1.87155C121.916 2.11152 121.57 2.45667 121.319 2.90699C121.068 3.35434 120.943 3.82095 120.943 4.30682C120.943 4.78973 121.066 5.25338 121.31 5.69777C121.558 6.1392 121.903 6.48435 122.346 6.73321C122.788 6.9791 123.25 7.10205 123.73 7.10205C124.211 7.10205 124.673 6.9791 125.115 6.73321C125.557 6.48435 125.901 6.1392 126.146 5.69777C126.391 5.25338 126.513 4.78973 126.513 4.30682C126.513 3.82095 126.388 3.35434 126.137 2.90699C125.889 2.45667 125.543 2.11152 125.097 1.87155C124.652 1.62862 124.196 1.50715 123.73 1.50715ZM122.266 6.15994V2.55147H123.5C123.922 2.55147 124.227 2.58554 124.416 2.65368C124.605 2.71886 124.755 2.8344 124.867 3.00031C124.979 3.16622 125.035 3.34249 125.035 3.52914C125.035 3.79281 124.941 4.02241 124.752 4.21794C124.566 4.41348 124.319 4.52309 124.009 4.5468C124.136 4.60012 124.238 4.66382 124.314 4.73788C124.459 4.88009 124.636 5.11858 124.845 5.45336L125.283 6.15994H124.575L124.257 5.59112C124.006 5.14376 123.804 4.8638 123.651 4.75122C123.544 4.66826 123.39 4.62679 123.186 4.62679H122.845V6.15994H122.266ZM122.845 4.12907H123.549C123.885 4.12907 124.114 4.0787 124.235 3.97797C124.358 3.87724 124.42 3.74393 124.42 3.57802C124.42 3.47137 124.391 3.37656 124.332 3.29361C124.273 3.20769 124.19 3.144 124.084 3.10252C123.981 3.06104 123.788 3.0403 123.505 3.0403H122.845V4.12907Z" fill="#808080"></path><defs><linearGradient id="paint0_linear_1042_381" x1="59.2626" y1="34.4578" x2="59.2626" y2="0.245244" gradientUnits="userSpaceOnUse"><stop stop-color="#3E3E3E"></stop><stop offset="0.45" stop-color="#7A7A7A"></stop><stop offset="1" stop-color="#BFBFBF"></stop></linearGradient></defs></svg> 