<?xml version="1.0" encoding="UTF-8"?> <svg xmlns="http://www.w3.org/2000/svg" width="196" height="57" viewBox="0 0 196 57" fill="none"><g clip-path="url(#clip0_1707_2548)"><path d="M38.167 56.2197V19.5584H43.6204V56.2134H38.167V56.2197ZM63.0417 56.2197V33.7597C63.0417 30.7444 62.1432 28.3524 60.3523 26.5835C58.5613 24.8147 56.3056 23.9334 53.5975 23.9334C51.757 23.9334 50.0776 24.3362 48.5656 25.142C47.0535 25.9477 45.8513 27.0808 44.9589 28.5349C44.0603 29.989 43.6142 31.7075 43.6142 33.6841L41.1601 32.6706C41.1601 29.8631 41.7736 27.4207 43.0007 25.3371C44.2277 23.2598 45.8823 21.6483 47.9521 20.5027C50.0219 19.357 52.3643 18.7842 54.9795 18.7842C57.5946 18.7842 59.8317 19.357 61.8519 20.5027C63.8721 21.6483 65.4834 23.2598 66.6918 25.3371C67.894 27.4144 68.4951 29.8883 68.4951 32.7462V56.2197H63.0417ZM87.8421 56.2197V33.7597C87.8421 30.7444 86.9436 28.3524 85.1526 26.5835C83.3617 24.8147 81.106 23.9334 78.3979 23.9334C76.607 23.9334 74.9524 24.3362 73.4465 25.142C71.9344 25.9477 70.7322 27.0808 69.8399 28.5349C68.9413 29.989 68.4951 31.7075 68.4951 33.6841L65.2727 32.6706C65.4276 29.8631 66.1526 27.4207 67.4602 25.3371C68.7678 23.2598 70.4781 21.6483 72.6037 20.5027C74.7293 19.357 77.0718 18.7842 79.6311 18.7842C82.1905 18.7842 84.5082 19.357 86.578 20.5027C88.654 21.6483 90.29 23.2598 91.4922 25.3371C92.6944 27.4144 93.2955 29.8883 93.2955 32.7462V56.2197H87.8421Z" fill="white"></path><path d="M117.433 57.0003C114.056 57.0003 111.007 56.1568 108.298 54.4635C105.584 52.7764 103.434 50.4977 101.847 47.6398C100.261 44.782 99.4678 41.559 99.4678 37.9709C99.4678 34.3828 100.261 31.0718 101.847 28.1824C103.434 25.2994 105.572 23.008 108.261 21.321C110.951 19.634 113.981 18.7842 117.359 18.7842C120.122 18.7842 122.589 19.3444 124.77 20.4586C126.945 21.5791 128.724 23.1339 130.106 25.1357C131.488 27.1375 132.306 29.4666 132.56 32.1167V43.5796C132.25 46.2298 131.42 48.5715 130.062 50.5984C128.705 52.6254 126.951 54.1991 124.801 55.3196C122.651 56.44 120.197 56.994 117.433 56.994V57.0003ZM118.276 51.7756C122.062 51.7756 125.08 50.504 127.336 47.9546C129.585 45.4052 130.713 42.0563 130.713 37.8954C130.713 35.1382 130.199 32.721 129.176 30.6437C128.154 28.5664 126.691 26.9423 124.801 25.7715C122.905 24.6006 120.705 24.0152 118.195 24.0152C115.685 24.0152 113.448 24.6132 111.478 25.8092C109.507 27.0053 107.945 28.6419 106.793 30.7255C105.64 32.8028 105.064 35.2012 105.064 37.9017C105.064 40.6022 105.64 43.0005 106.793 45.0778C107.945 47.1551 109.519 48.7981 111.515 49.9941C113.51 51.1901 115.766 51.7881 118.269 51.7881L118.276 51.7756ZM130.409 56.2197V46.3934L131.488 37.3477L130.409 28.5349V19.5647H135.863V56.2197H130.409Z" fill="white"></path><path d="M155.427 57.0002C153.481 57.0002 151.616 56.7295 149.825 56.1819C148.034 55.6342 146.41 54.8725 144.948 53.8779C143.491 52.8896 142.196 51.7188 141.068 50.3654L144.601 46.7773C146.032 48.5462 147.656 49.8555 149.478 50.7179C151.293 51.574 153.326 52.0021 155.582 52.0021C157.837 52.0021 159.79 51.5362 161.147 50.5983C162.504 49.6604 163.179 48.3636 163.179 46.6955C163.179 45.1344 162.708 43.9258 161.76 43.0697C160.812 42.2136 159.573 41.5085 158.036 40.9609C156.499 40.4132 154.888 39.897 153.196 39.3998C151.504 38.9088 149.905 38.2793 148.399 37.5302C146.887 36.7748 145.648 35.7361 144.675 34.4079C143.702 33.0797 143.219 31.2983 143.219 29.0636C143.219 26.9863 143.727 25.1797 144.756 23.6437C145.778 22.1078 147.21 20.9117 149.056 20.0556C150.897 19.1995 153.128 18.7715 155.737 18.7715C158.346 18.7715 160.905 19.2688 163.105 20.2508C165.305 21.2391 167.071 22.6932 168.403 24.6194L164.871 28.2075C163.849 26.8037 162.529 25.7147 160.917 24.9342C159.306 24.1536 157.503 23.7633 155.507 23.7633C153.202 23.7633 151.448 24.2165 150.246 25.1293C149.044 26.0421 148.443 27.2255 148.443 28.6796C148.443 30.1337 148.926 31.1913 149.899 31.997C150.872 32.8027 152.111 33.4511 153.623 33.9484C155.136 34.4457 156.734 34.9367 158.42 35.4277C160.112 35.925 161.723 36.5734 163.26 37.3791C164.797 38.1848 166.036 39.2801 166.984 40.6524C167.932 42.031 168.403 43.888 168.403 46.2297C168.403 49.503 167.238 52.1154 164.908 54.0668C162.578 56.0182 159.418 56.9939 155.427 56.9939V57.0002Z" fill="white"></path><path d="M171.855 24.5503V19.5585H195.429V24.5503H171.855ZM180.915 56.2198V4.11719H186.369V56.2198H180.915Z" fill="white"></path><path d="M29.3117 14.8872C29.3117 6.30104 22.117 -0.610717 13.5279 0.0439486C6.36422 0.591602 0.582419 6.46471 0.0432805 13.7416C-0.601207 22.4663 6.2031 29.7746 14.6558 29.7746C18.3864 29.7746 21.7947 28.3457 24.3851 26.004C24.633 25.7774 25.0296 25.8655 25.1659 26.1802C25.6431 27.2881 25.891 28.4904 25.891 29.7368H30.452C30.452 26.9104 29.6092 24.2225 28.0413 21.9627C27.8678 21.7109 27.8368 21.3898 27.967 21.1129C28.8283 19.2181 29.3117 17.1093 29.3117 14.8872ZM4.57948 15.5797C4.17048 9.27222 9.41314 4.06007 15.6597 4.68326C20.2579 5.13649 24.0133 8.80011 24.6516 13.452C24.8499 14.8935 24.7445 16.2784 24.3975 17.5689C24.3045 17.9151 23.9079 18.0787 23.5981 17.9088C21.6398 16.8009 19.4337 16.2092 17.1346 16.2092V20.8422C18.5289 20.8422 19.8737 21.1758 21.0883 21.799C21.4229 21.969 21.4787 22.4474 21.1874 22.6929C19.2664 24.3547 16.7194 25.3052 13.9617 25.1164C8.96076 24.7765 4.90173 20.6596 4.57329 15.5797H4.57948Z" fill="#00FFAE"></path></g><defs><clipPath id="clip0_1707_2548"><rect width="195.429" height="57" fill="white"></rect></clipPath></defs></svg> 