<?xml version="1.0" encoding="UTF-8"?> <svg xmlns="http://www.w3.org/2000/svg" width="1584" height="244" viewBox="0 0 1584 244" fill="none"><g clip-path="url(#clip0_728_858)"><path d="M352.868 179.486C352.868 75.9706 266.261 -7.3874 162.885 0.509672C76.6374 7.09057 6.99289 77.9449 0.500404 165.715C-7.26184 270.887 74.649 358.998 176.421 358.998C221.365 358.998 262.404 341.79 293.573 313.541C296.568 310.811 301.359 311.883 302.964 315.637C308.69 328.969 311.685 343.472 311.685 358.486H366.571C366.571 324.363 356.413 291.995 337.535 264.794C335.451 261.771 335.091 257.896 336.601 254.532C346.998 231.694 352.82 206.272 352.82 179.486H352.868ZM55.1475 187.846C50.2123 111.776 113.34 48.9889 188.567 56.4473C243.957 61.9557 289.141 106.121 296.783 162.18C299.155 179.534 297.885 196.279 293.717 211.854C292.591 216.046 287.871 218.045 284.134 215.924C260.583 202.568 233.967 195.45 206.344 195.45V251.291C223.114 251.291 239.333 255.288 253.923 262.819C257.972 264.915 258.595 270.619 255.145 273.592C232.002 293.676 201.384 305.083 168.179 302.841C107.95 298.77 59.1245 249.097 55.1475 187.821V187.846Z" fill="white"></path><path d="M754.255 107.707C686.144 107.707 630.754 164.083 630.754 233.353C630.754 302.623 686.168 359 754.255 359C822.342 359 877.756 302.623 877.756 233.353C877.756 164.083 822.342 107.707 754.255 107.707ZM754.255 303.16C716.426 303.16 685.641 271.839 685.641 233.353C685.641 194.867 716.426 163.547 754.255 163.547C792.084 163.547 822.869 194.867 822.869 233.353C822.869 271.839 792.084 303.16 754.255 303.16Z" fill="white"></path><path d="M1323.74 147.07L1276.96 117.871C1258.53 148.411 1228.13 168.665 1194.61 174.686C1190.23 175.466 1186.23 172.004 1186.23 167.495V32.0508H1131.34V358.999H1186.23V261.626C1186.23 257.093 1190.59 253.778 1194.83 255.216C1237.64 269.621 1268.62 310.691 1268.62 358.999H1323.5C1323.5 303.111 1296.07 253.632 1254.17 223.725C1249.98 220.727 1250.36 214.415 1254.91 212.002C1282.68 197.353 1306.73 175.246 1323.74 147.046V147.07Z" fill="white"></path><path d="M1099.84 147.071L1053.05 117.871C1034.63 148.412 1004.23 168.642 970.711 174.687C966.327 175.467 962.302 172.005 962.302 167.496V32.0518H907.415V359H962.302V261.627C962.302 257.094 966.662 253.779 970.903 255.217C1013.71 269.622 1044.69 310.692 1044.69 359H1099.58C1099.58 303.111 1072.15 253.633 1030.25 223.726C1026.05 220.728 1026.44 214.416 1030.99 212.003C1058.73 197.354 1082.81 175.247 1099.82 147.047L1099.84 147.071Z" fill="white"></path><path d="M1529.11 107.707V119.504C1529.11 123.575 1524.83 126.061 1521.35 124.038C1500.58 112.022 1476.05 105.928 1450.03 108.122C1389.87 113.192 1341.55 163.011 1337.31 224.262C1332.23 297.627 1389.46 358.976 1460.5 358.976C1482.61 358.976 1503.36 353.029 1521.33 342.645C1524.8 340.622 1529.11 343.109 1529.11 347.179V358.976H1584V107.707H1529.11ZM1460.5 303.16C1422.67 303.16 1391.88 271.84 1391.88 233.354C1391.88 194.868 1422.67 163.548 1460.5 163.548C1498.33 163.548 1529.11 194.868 1529.11 233.354C1529.11 271.84 1498.33 303.16 1460.5 303.16Z" fill="white"></path><path d="M550.373 248.027C550.373 278.421 526.056 303.16 496.181 303.16C466.306 303.16 441.989 278.421 441.989 248.027V119.675H387.103V248.027C387.103 309.229 436.024 359 496.181 359C556.339 359 605.26 309.205 605.26 248.027V119.675H550.373V248.027Z" fill="white"></path></g><defs><clipPath id="clip0_728_858"><rect width="1584" height="359" fill="white"></rect></clipPath></defs></svg> 