<svg xmlns="http://www.w3.org/2000/svg" width="35" height="35" viewBox="0 0 35 35" fill="none"><g clip-path="url(#clip0_1042_425)"><path d="M32.132 14.7564C31.5514 13.5737 30.8933 12.4373 30.1649 11.3789C30.0523 11.2156 30.0452 11.0025 30.1543 10.8391C31.7308 8.55903 31.9947 3.68638 30.2423 1.75437C29.4857 0.919764 28.3033 0.827425 27.2934 1.1151C25.6254 1.591 23.7603 2.96543 23.2782 4.94361C23.2676 4.98978 23.2606 5.03595 23.25 5.08212C23.2465 5.10698 23.243 5.12829 23.2395 5.15315C23.2395 5.16735 23.2395 5.18156 23.2219 5.18511C23.2043 5.18866 23.1761 5.16735 23.1585 5.16025C23.1128 5.13894 23.0635 5.11763 23.0178 5.09632C22.9228 5.05371 22.8277 5.01464 22.7327 4.97557C22.5427 4.89744 22.3492 4.82641 22.1556 4.75538C21.9621 4.68435 21.765 4.62397 21.5679 4.56715C21.3709 4.51033 21.1703 4.45705 20.9697 4.40733C20.8043 4.36827 20.6389 4.33275 20.47 4.30079C20.4137 4.29013 20.375 4.23331 20.3891 4.17649C20.4946 3.7432 20.7199 3.48394 21.0682 3.41291C21.3181 3.35964 21.5222 3.1501 21.5257 2.8944C21.5257 2.54635 21.2196 2.30485 20.9029 2.36167C20.4806 2.4398 19.5973 2.75944 19.3404 4.05574C19.3299 4.10546 19.2876 4.14097 19.2384 4.13742C18.8653 4.1019 18.4853 4.07704 18.1017 4.06284C18.0454 4.06284 18.0032 4.01312 18.0032 3.95984C18.0102 3.63311 18.0912 3.34899 18.1827 3.13235C18.4079 2.61028 18.7985 2.24447 19.0695 2.15213C19.3826 2.04559 19.5304 1.66913 19.3475 1.3637C19.2067 1.13285 18.9146 1.06893 18.6648 1.16482C18.0876 1.38856 17.5246 1.98521 17.2149 2.70261C17.039 3.10749 16.951 3.53011 16.9475 3.95629C16.9475 4.00957 16.9053 4.05218 16.8525 4.05574C16.4408 4.06994 16.0326 4.09835 15.6243 4.14452C15.568 4.15163 15.5153 4.10901 15.5117 4.05218C15.4167 2.84112 15.8073 1.60875 16.5991 0.933969C16.8595 0.710225 16.856 0.287597 16.5463 0.0780587C16.3457 -0.0568982 16.0853 -0.0249347 15.9023 0.131331C14.8291 1.05472 14.3153 2.67775 14.4666 4.24752C14.4701 4.29724 14.4384 4.34341 14.3927 4.35406C13.622 4.52808 12.876 4.78734 12.1687 5.16025C12.1405 5.17446 12.1159 5.19221 12.0877 5.20642C12.035 5.23483 12.0279 5.1709 12.0209 5.13184C12.0103 5.06791 11.9998 5.00043 11.9857 4.93651C11.5036 2.95832 9.63852 1.58389 7.97052 1.10799C6.96056 0.820322 5.77818 0.91266 5.02159 1.74726C3.32543 3.6189 3.51898 8.25005 4.96529 10.6118C5.08142 10.8 5.05678 11.038 4.91602 11.2049C4.2263 12.0359 3.5788 12.9096 2.97705 13.8259C0.781194 17.175 -0.15838 21.5113 0.0210896 25.83C0.0422036 26.3272 0.0773936 26.8208 0.12666 27.3145C0.380028 29.8005 1.52018 33.1602 3.61399 34.1227C6.34826 35.3799 9.90597 35.0496 12.774 34.5737C15.4484 34.1263 18.1475 33.8421 20.8536 33.7143C25.0588 33.5154 30.7173 35.3657 33.5713 31.1572C34.5707 29.6833 34.8838 27.5844 34.9789 25.83C35.1794 22.1115 33.7578 18.0735 32.132 14.7564Z" fill="#00FFAE"></path><path d="M13.8755 17.7472C14.157 17.3139 14.2872 16.7741 14.1781 16.1916C14.0233 15.3606 13.3687 14.6787 12.5453 14.5118C11.1869 14.2347 9.99048 15.2753 9.99048 16.5965C9.99048 17.0191 10.1172 17.4133 10.3283 17.7436C10.4409 17.9176 10.6345 18.0171 10.8386 18.0171H13.3617C13.5658 18.0171 13.7593 17.9176 13.8684 17.7472H13.8755Z" fill="#0A0A0A"></path><path d="M24.6858 17.7472C24.9673 17.3139 25.0975 16.7741 24.9884 16.1916C24.8336 15.3606 24.1791 14.6787 23.3556 14.5118C21.9973 14.2347 20.8008 15.2753 20.8008 16.5965C20.8008 17.0191 20.9275 17.4133 21.1386 17.7436C21.2512 17.9176 21.4448 18.0171 21.6489 18.0171H24.172C24.3761 18.0171 24.5697 17.9176 24.6788 17.7472H24.6858Z" fill="#0A0A0A"></path><path d="M17.3065 27.4427C16.2508 27.4427 15.174 27.2296 14.1464 26.8035C13.8755 26.6934 13.7488 26.3808 13.8579 26.1074C13.9669 25.8339 14.2766 25.706 14.5476 25.8161C16.3 26.5406 18.2144 26.5619 19.8015 25.8694C21.1598 25.2799 22.1627 24.2109 22.7081 22.7867C22.8137 22.5132 23.1164 22.3747 23.3908 22.4813C23.6618 22.5878 23.799 22.8968 23.6935 23.1703C23.046 24.8714 21.846 26.1429 20.2202 26.8496C19.3158 27.2438 18.3235 27.4392 17.31 27.4392L17.3065 27.4427Z" fill="#0A0A0A"></path></g><defs><clipPath id="clip0_1042_425"><rect width="35" height="35" fill="white"></rect></clipPath></defs></svg>