<svg xmlns="http://www.w3.org/2000/svg" width="199" height="55" viewBox="0 0 199 55" fill="none"><g clip-path="url(#clip0_1392_12601)"><path d="M48.3405 54.9997C46.4324 54.9997 44.6033 54.7385 42.8472 54.21C41.091 53.6816 39.4989 52.9466 38.0648 51.987C36.6367 51.0333 35.3667 49.9036 34.2607 48.5977L37.7245 45.1355C39.1282 46.8423 40.7203 48.1057 42.5069 48.9378C44.2874 49.7639 46.2805 50.1769 48.4925 50.1769C50.7044 50.1769 52.6186 49.7274 53.9494 48.8224C55.2802 47.9174 55.9425 46.6661 55.9425 45.0565C55.9425 43.5502 55.4807 42.384 54.551 41.5579C53.6212 40.7318 52.4059 40.0516 50.8988 39.5231C49.3918 38.9947 47.8119 38.4966 46.1529 38.0168C44.494 37.543 42.9262 36.9356 41.4495 36.2128C39.9668 35.4839 38.7515 34.4817 37.7974 33.2001C36.8434 31.9185 36.3694 30.1995 36.3694 28.0433C36.3694 26.0389 36.8677 24.2956 37.8764 22.8136C38.8791 21.3315 40.2828 20.1775 42.0937 19.3514C43.8984 18.5253 46.0861 18.1123 48.6444 18.1123C51.2027 18.1123 53.7124 18.5921 55.8696 19.5397C58.0269 20.4933 59.7587 21.8964 61.0652 23.755L57.6015 27.2172C56.5988 25.8627 55.3045 24.8119 53.7245 24.0587C52.1446 23.3056 50.3762 22.929 48.4195 22.929C46.159 22.929 44.4393 23.3663 43.2604 24.247C42.0815 25.1278 41.4921 26.2697 41.4921 27.6728C41.4921 29.0759 41.966 30.0963 42.9201 30.8738C43.8741 31.6512 45.0895 32.2769 46.5722 32.7567C48.0549 33.2365 49.6227 33.7103 51.2756 34.1841C52.9346 34.6639 54.5145 35.2896 56.0215 36.067C57.5286 36.8445 58.7439 37.9014 59.6737 39.2255C60.6034 40.5557 61.0652 42.3475 61.0652 44.6071C61.0652 47.7655 59.9228 50.2862 57.6379 52.1692C55.3531 54.0521 52.254 54.9936 48.3405 54.9936V54.9997Z" fill="white"></path><path d="M83.3729 55.0002C79.9092 55.0002 76.7857 54.1863 73.9965 52.5524C71.2134 50.9245 69.0136 48.7015 67.4093 45.8953C65.8051 43.0891 65.0029 39.9488 65.0029 36.4867C65.0029 33.0245 65.8051 29.9025 67.4093 27.1145C69.0136 24.3326 71.2134 22.1338 73.9965 20.5303C76.7796 18.9268 79.9092 18.125 83.3729 18.125C86.0831 18.125 88.5928 18.6291 90.902 19.6313C93.2111 20.6336 95.1679 22.0366 96.7721 23.8467L93.2354 27.4607C92.0323 26.1062 90.586 25.0676 88.9088 24.3387C87.2256 23.6098 85.3843 23.2454 83.3729 23.2454C80.9118 23.2454 78.706 23.8224 76.7493 24.9765C74.7926 26.1305 73.2612 27.6976 72.1552 29.6777C71.0493 31.6578 70.4963 33.9295 70.4963 36.4867C70.4963 39.0438 71.0493 41.3398 72.1552 43.3746C73.2612 45.4033 74.7926 47.0007 76.7493 48.1548C78.706 49.3089 80.9179 49.8859 83.3729 49.8859C85.3782 49.8859 87.2377 49.5215 88.9453 48.7926C90.6528 48.0637 92.1295 47.025 93.3874 45.6705L96.924 49.2056C95.2651 51.0642 93.2719 52.4916 90.9384 53.4938C88.605 54.496 86.0831 55.0002 83.3729 55.0002Z" fill="white"></path><path d="M117.136 55.0004C113.672 55.0004 110.561 54.1743 107.802 52.5161C105.043 50.8579 102.843 48.6288 101.215 45.8165C99.586 43.0104 98.7656 39.8701 98.7656 36.4079C98.7656 32.9458 99.5799 29.9088 101.215 27.1512C102.843 24.3936 105.043 22.1948 107.802 20.567C110.561 18.9391 113.672 18.1191 117.136 18.1191C120.599 18.1191 123.65 18.9209 126.433 20.5244C129.216 22.128 131.428 24.3268 133.057 27.1086C134.685 29.8905 135.506 32.9943 135.506 36.4019C135.506 39.8094 134.691 43.0589 133.057 45.8469C131.428 48.6288 129.216 50.8519 126.433 52.504C123.65 54.1622 120.545 54.9883 117.136 54.9883V55.0004ZM117.136 49.88C119.597 49.88 121.803 49.303 123.759 48.1489C125.716 46.9949 127.247 45.3914 128.353 43.3323C129.459 41.2732 130.012 38.9651 130.012 36.4079C130.012 33.8508 129.447 31.652 128.317 29.6719C127.187 27.6917 125.655 26.1247 123.723 24.9706C121.79 23.8165 119.597 23.2395 117.136 23.2395C114.675 23.2395 112.469 23.8165 110.512 24.9706C108.555 26.1247 107.024 27.6917 105.918 29.6719C104.812 31.652 104.259 33.8994 104.259 36.4079C104.259 38.9165 104.812 41.34 105.918 43.3687C107.024 45.3974 108.555 46.9949 110.512 48.1489C112.469 49.303 114.681 49.88 117.136 49.88Z" fill="white"></path><path d="M156.215 55.0002C153.353 55.0002 150.782 54.332 148.498 53.0079C146.213 51.6777 144.444 49.8494 143.187 47.517C141.929 45.1846 141.303 42.4877 141.303 39.4265V18.8721H146.65V39.1896C146.65 41.3458 147.039 43.2288 147.817 44.8323C148.595 46.4358 149.713 47.6932 151.165 48.5921C152.618 49.4971 154.301 49.9466 156.209 49.9466C159.168 49.9466 161.502 48.9687 163.209 47.0129C164.917 45.057 165.768 42.4452 165.768 39.1835V18.8721H171.115V39.4204C171.115 42.4817 170.489 45.1907 169.231 47.5474C167.974 49.9041 166.23 51.7384 163.999 53.0383C161.763 54.3442 159.168 54.9941 156.209 54.9941L156.215 55.0002Z" fill="white"></path><path d="M175.854 23.6888V18.8722H198.97V23.6888H175.854ZM184.739 54.2471V3.97266H190.086V54.2471H184.739Z" fill="white"></path><path d="M28.7439 14.3659C28.7439 6.08096 21.6888 -0.588278 13.2664 0.0434173C6.24171 0.571855 0.572112 6.23889 0.0434361 13.2604C-0.588545 21.679 6.08371 28.7309 14.3724 28.7309C18.0306 28.7309 21.3728 27.3521 23.9129 25.0926C24.1559 24.8739 24.5448 24.9589 24.6785 25.2626C25.1464 26.3317 25.3895 27.4918 25.3895 28.6944H29.862C29.862 25.9672 29.0356 23.3736 27.4981 21.1931C27.328 20.9501 27.2976 20.6403 27.4252 20.3731C28.2699 18.5448 28.7439 16.51 28.7439 14.3659ZM4.49161 15.034C4.09054 8.94789 9.23146 3.91862 15.3568 4.51995C19.8658 4.95728 23.5483 8.49234 24.1742 12.981C24.3686 14.372 24.2653 15.7082 23.925 16.9534C23.8339 17.2875 23.445 17.4454 23.1411 17.2814C21.2209 16.2124 19.0575 15.6414 16.8031 15.6414V20.1119C18.1703 20.1119 19.489 20.4338 20.68 21.0351C21.0082 21.1991 21.0629 21.6608 20.7773 21.8976C18.8935 23.5012 16.3959 24.4183 13.6918 24.2361C8.78786 23.9081 4.8076 19.9357 4.48553 15.034H4.49161Z" fill="#00FFAE"></path></g><defs><clipPath id="clip0_1392_12601"><rect width="198.971" height="55" fill="white"></rect></clipPath></defs></svg>