<?xml version="1.0" encoding="UTF-8"?> <svg xmlns="http://www.w3.org/2000/svg" width="28" height="29" viewBox="0 0 28 29" fill="none"><path d="M6.25 29H0.4375V10.3125H6.25V29ZM3.3125 7.8125C1.5 7.8125 0 6.25 0 4.375C0 3.1875 0.625 2.0625 1.625 1.5C2.6875 0.875 4 0.875 5 1.5C6.0625 2.0625 6.6875 3.1875 6.6875 4.375C6.6875 6.25 5.1875 7.8125 3.3125 7.8125ZM27.9375 29H22.1875V19.9375C22.1875 17.75 22.125 15 19.125 15C16.125 15 15.6875 17.3125 15.6875 19.75V29H9.875V10.3125H15.4375V12.875H15.5C16.3125 11.4375 18.1875 9.875 21 9.875C26.875 9.875 28 13.75 28 18.75V29H27.9375Z" fill="white"></path></svg> 