<?xml version="1.0" encoding="UTF-8"?> <svg xmlns="http://www.w3.org/2000/svg" width="137" height="31" viewBox="0 0 137 31" fill="none"><g clip-path="url(#clip0_639_2116)"><path d="M30.5195 15.4988C30.5195 6.56016 23.0289 -0.637883 14.0879 0.0440372C6.62838 0.612304 0.604829 6.73064 0.0432941 14.3096C-0.628061 23.3914 6.4564 30.9998 15.2586 30.9998C19.1458 30.9998 22.6953 29.5139 25.3911 27.0746C25.6501 26.8389 26.0645 26.9315 26.2034 27.2556C26.6986 28.4069 26.9576 29.6592 26.9576 30.9556H31.7047C31.7047 28.0091 30.8262 25.214 29.1934 22.8652C29.0131 22.6042 28.982 22.2696 29.1126 21.9791C30.0118 20.007 30.5154 17.8118 30.5154 15.4988H30.5195ZM4.76972 16.2207C4.34287 9.65195 9.80281 4.23027 16.3092 4.8743C21.0998 5.34996 25.0078 9.16367 25.6688 14.0045C25.8739 15.503 25.7641 16.9489 25.4035 18.2938C25.3061 18.6558 24.8979 18.8284 24.5747 18.6453C22.5378 17.4919 20.2358 16.8774 17.8466 16.8774V21.6992C19.2971 21.6992 20.6999 22.0444 21.9618 22.6947C22.312 22.8757 22.3659 23.3682 22.0675 23.625C20.0658 25.3593 17.4177 26.3443 14.5458 26.1506C9.33659 25.7991 5.11368 21.5098 4.76972 16.2186V16.2207Z" fill="#0A0A0A"></path><path d="M65.2354 9.30066C59.3445 9.30066 54.5538 14.1688 54.5538 20.1503C54.5538 26.1319 59.3466 31 65.2354 31C71.1243 31 75.917 26.1319 75.917 20.1503C75.917 14.1688 71.1243 9.30066 65.2354 9.30066ZM65.2354 26.1782C61.9636 26.1782 59.301 23.4737 59.301 20.1503C59.301 16.827 61.9636 14.1225 65.2354 14.1225C68.5072 14.1225 71.1699 16.827 71.1699 20.1503C71.1699 23.4737 68.5072 26.1782 65.2354 26.1782Z" fill="#0A0A0A"></path><path d="M114.491 12.6996L110.444 10.1782C108.85 12.8154 106.221 14.5644 103.322 15.0842C102.943 15.1516 102.597 14.8527 102.597 14.4633V2.76758H97.8496V30.9999H102.597V22.5917C102.597 22.2002 102.974 21.914 103.341 22.0381C107.043 23.282 109.723 26.8284 109.723 30.9999H114.47C114.47 26.1739 112.097 21.9013 108.473 19.3189C108.111 19.06 108.144 18.5149 108.537 18.3065C110.939 17.0416 113.019 15.1326 114.491 12.6975V12.6996Z" fill="#0A0A0A"></path><path d="M95.1253 12.6997L91.0785 10.1783C89.4851 12.8155 86.8556 14.5624 83.9567 15.0844C83.5776 15.1517 83.2294 14.8528 83.2294 14.4635V2.7677H78.4823V31H83.2294V22.5918C83.2294 22.2003 83.6066 21.9141 83.9733 22.0383C87.6761 23.2821 90.3553 26.8285 90.3553 31H95.1025C95.1025 26.174 92.7299 21.9015 89.1059 19.319C88.7433 19.0601 88.7764 18.515 89.1701 18.3066C91.5696 17.0417 93.652 15.1328 95.1232 12.6976L95.1253 12.6997Z" fill="#0A0A0A"></path><path d="M132.253 9.30065V10.3193C132.253 10.6708 131.882 10.8855 131.581 10.7108C129.785 9.67318 127.663 9.14701 125.413 9.33643C120.21 9.77421 116.031 14.0762 115.664 19.3653C115.224 25.7004 120.175 30.9979 126.318 30.9979C128.231 30.9979 130.025 30.4844 131.579 29.5878C131.88 29.4131 132.253 29.6278 132.253 29.9792V30.9979H137V9.30065H132.253ZM126.318 26.1782C123.047 26.1782 120.384 23.4736 120.384 20.1503C120.384 16.827 123.047 14.1225 126.318 14.1225C129.59 14.1225 132.253 16.827 132.253 20.1503C132.253 23.4736 129.59 26.1782 126.318 26.1782Z" fill="#0A0A0A"></path><path d="M47.6017 21.4173C47.6017 24.0418 45.4986 26.1781 42.9147 26.1781C40.3308 26.1781 38.2276 24.0418 38.2276 21.4173V10.334H33.4805V21.4173C33.4805 26.7022 37.7117 30.9999 42.9147 30.9999C48.1177 30.9999 52.3489 26.7001 52.3489 21.4173V10.334H47.6017V21.4173Z" fill="#0A0A0A"></path></g><defs><clipPath id="clip0_639_2116"><rect width="137" height="31" fill="white"></rect></clipPath></defs></svg> 