<?xml version="1.0" encoding="UTF-8"?> <svg xmlns="http://www.w3.org/2000/svg" viewBox="0 0 1000 667"><title>Quokka-News-Card-Blog-2</title><rect x="0.5" y="0.5" width="999" height="666" style="fill:#e4e4e4"></rect><path d="M503.8,424.3a25.07,25.07,0,0,0-34.7,0,25.52,25.52,0,0,0,0,34.9,24.25,24.25,0,0,0,41.6-17.4A24,24,0,0,0,503.8,424.3ZM496.4,452a13.85,13.85,0,0,1-19.5.2l-.2-.2a15.42,15.42,0,0,1,0-20.5,13.73,13.73,0,0,1,19.4-.2l.2.2A15.53,15.53,0,0,1,496.4,452Zm115.5,18.7a16.87,16.87,0,0,1-7.1,6.4,33.75,33.75,0,0,1-15.2,4c-10.2.3-20.3-2-27.8-9.5l-29.4-29.1-7.2,6.7v16.1H514.7V395.1h10.5V435l18.1-16.7h14.9l-18.4,17.1,28,27.8.1.1a30.94,30.94,0,0,0,36.5,2.7,30.29,30.29,0,0,0,7.2-5.6c2.1,2.9,1.9,7.2.3,10.3ZM458.3,418.3v47H448.1v-3.5a21.34,21.34,0,0,1-4.6,2.7,20.27,20.27,0,0,1-8.1,1.7,21.43,21.43,0,0,1-9.3-2.1,19.93,19.93,0,0,1-7.4-5.8,17.64,17.64,0,0,1-3.2-6.6,33.76,33.76,0,0,1-1-9.5v-24H425v25.4c0,3.9.8,6.8,2.5,8.7a11.33,11.33,0,0,0,3.7,2.8,11,11,0,0,0,4.7,1,13.94,13.94,0,0,0,6.9-1.8A19.58,19.58,0,0,0,448,450V418.2l10.3.1Zm188.7,0v3.2a24,24,0,0,0-14-4.2,23.3,23.3,0,0,0-17.3,7A24.63,24.63,0,0,0,647.1,462v3.3h10.2v-47ZM642.8,452a13.85,13.85,0,0,1-19.5.2l-.2-.2a15.42,15.42,0,0,1,0-20.5,13.73,13.73,0,0,1,19.4-.2l.2.2A15.31,15.31,0,0,1,642.8,452ZM444.9,469c-.1,4.6-1.7,7.7-6,9.9a21.24,21.24,0,0,1-11.1,2.1c-14.8-1-22.5-6.9-30.4-15.6-7.6-8.3-14.5-18.3-25.8-21.5a10.3,10.3,0,0,1,4.6-3.9,11.68,11.68,0,0,1,10,.3c7,3.8,11.5,10.7,16.9,16.3A58.78,58.78,0,0,0,417,468a28,28,0,0,0,11.6,3.5,34.16,34.16,0,0,0,12.3-1.2,15.87,15.87,0,0,0,2-.7Zm-55.1-5.6a35.45,35.45,0,0,1-27.5,0,33,33,0,0,1-18.2-18.8,37.65,37.65,0,0,1,0-28,33,33,0,0,1,18.2-18.8,34.39,34.39,0,0,1,43.8,14.7,38.09,38.09,0,0,1,0,36.2,16.65,16.65,0,0,1-1.8,2.8c-.7-.8-1.3-1.6-2-2.3a79.66,79.66,0,0,0-5.5-6.1,26.52,26.52,0,0,0,2.8-12.4,25.58,25.58,0,0,0-6.7-17.9,23.36,23.36,0,0,0-33-.7l-.1.1-.6.6c-4.5,4.8-6.7,10.8-6.7,17.9a25.45,25.45,0,0,0,6.7,17.9,21.8,21.8,0,0,0,16.8,7.1,24.58,24.58,0,0,0,6-.7,88.18,88.18,0,0,1,7.8,8.4Zm172.7-11.9V395H573v39.9l18-16.7h15l-18.4,17.1,21.5,21.3-.6.6a25,25,0,0,1-6.3,4.8,10,10,0,0,1-1.4.8l-20.9-20.6-7.1,6.7v12.4l-2.1-1.5Z" style="fill:#244c5a"></path><path d="M392.7,337.5v12.4a5.59,5.59,0,0,0,5.6,5.6l207.1-.1a5.59,5.59,0,0,0,5.6-5.6V337.5a42.58,42.58,0,0,0-23.2-37.9l-1.1-.6.9-.8a28.71,28.71,0,1,0-48.2-21.1,28.44,28.44,0,0,0,9.3,21l.9.8-1.1.6a46,46,0,0,0-8.3,5.5l-.7.6-.5-.7a49.56,49.56,0,0,0-16.1-12.6l-1.2-.6,1-.8A31.87,31.87,0,0,0,502,234.6h-.4a31.93,31.93,0,0,0-20.3,56.3l1,.8-1.2.6a48.62,48.62,0,0,0-16.2,12.6l-.6.7-.7-.6a41.71,41.71,0,0,0-8.3-5.6l-1.1-.6.9-.8a28.28,28.28,0,0,0,9.2-20.9,28.8,28.8,0,0,0-57.6,0,28.44,28.44,0,0,0,9.3,21l.9.8-1.1.6A42.59,42.59,0,0,0,392.7,337.5Zm175.6-78a17.5,17.5,0,1,1,0,35A17.61,17.61,0,0,1,550.7,277,17.35,17.35,0,0,1,568.3,259.5Zm-22.2,55.3a31.7,31.7,0,0,1,22-8.9,31.31,31.31,0,0,1,31.7,31.6v6.7H550.3v-8.4a47.76,47.76,0,0,0-4.4-20l-.3-.5Zm-64.9-48.2a20.8,20.8,0,1,1,41.6,0A20.53,20.53,0,0,1,502,287.4,20.78,20.78,0,0,1,481.2,266.6Zm-16.3,69.2a37.1,37.1,0,1,1,74.2,0v8.5H464.9v-8.5Zm-29.2-76.3A17.35,17.35,0,0,1,453.3,277a17.54,17.54,0,0,1-17.6,17.5,17.5,17.5,0,0,1,0-35Zm0,46.3a32.18,32.18,0,0,1,22.2,8.9l.4.4-.3.5a48.1,48.1,0,0,0-4.4,20v8.5H403.8v-6.6A31.56,31.56,0,0,1,435.7,305.8Z" style="fill:#56b093"></path><path d="M446.6,212.1a5.44,5.44,0,0,0,1.7,4l12,12.1a5.61,5.61,0,0,0,4,1.7h0a6,6,0,0,0,4-1.6,5.67,5.67,0,0,0,0-8l-12.1-12.1a5.59,5.59,0,0,0-9.6,3.9Z" style="fill:#56b093"></path><path d="M496.4,191.9V209a5.51,5.51,0,0,0,1.6,4,5.22,5.22,0,0,0,3.9,1.7,5.59,5.59,0,0,0,5.7-5.5V191.8a5.51,5.51,0,0,0-1.6-4,5.22,5.22,0,0,0-3.9-1.7h-.2A5.89,5.89,0,0,0,496.4,191.9Z" style="fill:#56b093"></path><path d="M535.8,220.2a5.44,5.44,0,0,0-1.7,4,5.51,5.51,0,0,0,1.6,4,5.77,5.77,0,0,0,8,.2l.2-.2L556,216.1a5.38,5.38,0,0,0,1.7-3.9,5.51,5.51,0,0,0-1.6-4,5.61,5.61,0,0,0-4-1.7h-.2a5,5,0,0,0-3.8,1.7Z" style="fill:#56b093"></path></svg> 