<?xml version="1.0" encoding="UTF-8"?> <svg xmlns="http://www.w3.org/2000/svg" xmlns:xlink="http://www.w3.org/1999/xlink" id="Layer_1" data-name="Layer 1" version="1.1" viewBox="0 0 196 123"><defs><style> .cls-1 { clip-path: url(#clippath); } .cls-2 { fill: none; } .cls-2, .cls-3, .cls-4, .cls-5 { stroke-width: 0px; } .cls-3 { fill: #00ffae; } .cls-4 { fill: #0a0a0a; } .cls-5 { fill: #fff; } </style><clipPath id="clippath"><rect class="cls-2" x="29.1" y="42.4" width="137.9" height="38.1"></rect></clipPath></defs><rect class="cls-4" y="0" width="195" height="122.2" rx="5" ry="5"></rect><g class="cls-1"><g><path class="cls-5" d="M62.6,80.6c-1.3,0-2.6-.2-3.8-.5-1.2-.4-2.3-.9-3.3-1.5-1-.7-1.9-1.4-2.6-2.3l2.4-2.4c1,1.2,2.1,2.1,3.3,2.6,1.2.6,2.6.9,4.1.9s2.9-.3,3.8-.9c.9-.6,1.4-1.5,1.4-2.6s-.3-1.9-1-2.4c-.6-.6-1.5-1-2.5-1.4-1-.4-2.1-.7-3.3-1-1.1-.3-2.2-.7-3.3-1.2-1-.5-1.9-1.2-2.5-2.1-.7-.9-1-2.1-1-3.6s.3-2.6,1-3.6c.7-1,1.7-1.8,2.9-2.4,1.3-.6,2.8-.9,4.5-.9s3.5.3,5,1c1.5.7,2.7,1.6,3.6,2.9l-2.4,2.4c-.7-.9-1.6-1.7-2.7-2.2-1.1-.5-2.3-.8-3.7-.8s-2.8.3-3.6.9c-.8.6-1.2,1.4-1.2,2.4s.3,1.7,1,2.2c.7.5,1.5,1,2.5,1.3,1,.3,2.1.7,3.3,1,1.1.3,2.2.8,3.3,1.3s1.9,1.3,2.5,2.2c.6.9,1,2.2,1,3.7s-.8,3.9-2.4,5.2c-1.6,1.3-3.7,2-6.4,2h0Z"></path><path class="cls-5" d="M86.8,80.6c-2.4,0-4.6-.6-6.5-1.7-1.9-1.1-3.5-2.7-4.6-4.6-1.1-1.9-1.7-4.1-1.7-6.5s.6-4.6,1.7-6.5c1.1-1.9,2.6-3.5,4.6-4.6,1.9-1.1,4.1-1.7,6.5-1.7s3.6.3,5.2,1c1.6.7,3,1.7,4.1,2.9l-2.5,2.5c-.8-.9-1.8-1.7-3-2.2-1.2-.5-2.4-.8-3.8-.8s-3.2.4-4.6,1.2c-1.4.8-2.4,1.9-3.2,3.3-.8,1.4-1.1,2.9-1.1,4.7s.4,3.4,1.1,4.8c.8,1.4,1.8,2.5,3.2,3.3,1.4.8,2.9,1.2,4.6,1.2s2.7-.3,3.9-.8c1.2-.5,2.2-1.2,3.1-2.2l2.5,2.4c-1.1,1.3-2.5,2.3-4.1,3-1.6.7-3.4,1-5.2,1Z"></path><path class="cls-5" d="M110.2,80.6c-2.4,0-4.6-.6-6.5-1.7-1.9-1.1-3.4-2.7-4.6-4.6-1.1-1.9-1.7-4.1-1.7-6.5s.6-4.5,1.7-6.4c1.1-1.9,2.7-3.4,4.6-4.6,1.9-1.1,4.1-1.7,6.5-1.7s4.5.6,6.4,1.7c1.9,1.1,3.5,2.6,4.6,4.6,1.1,1.9,1.7,4.1,1.7,6.4s-.6,4.6-1.7,6.5c-1.1,1.9-2.7,3.5-4.6,4.6-1.9,1.1-4.1,1.7-6.4,1.7h0ZM110.2,77c1.7,0,3.2-.4,4.6-1.2,1.4-.8,2.4-1.9,3.2-3.3.8-1.4,1.1-3,1.1-4.8s-.4-3.3-1.2-4.7c-.8-1.4-1.8-2.5-3.2-3.3-1.3-.8-2.9-1.2-4.6-1.2s-3.2.4-4.6,1.2c-1.4.8-2.4,1.9-3.2,3.3-.8,1.4-1.1,2.9-1.1,4.7s.4,3.4,1.1,4.8c.8,1.4,1.8,2.5,3.2,3.3,1.4.8,2.9,1.2,4.6,1.2Z"></path><path class="cls-5" d="M137.3,80.6c-2,0-3.8-.5-5.3-1.4-1.6-.9-2.8-2.2-3.7-3.8-.9-1.6-1.3-3.5-1.3-5.6v-14.2h3.7v14.1c0,1.5.3,2.8.8,3.9s1.3,2,2.3,2.6c1,.6,2.2.9,3.5.9,2,0,3.7-.7,4.8-2,1.2-1.4,1.8-3.2,1.8-5.4v-14.1h3.7v14.2c0,2.1-.4,4-1.3,5.6-.9,1.6-2.1,2.9-3.6,3.8-1.5.9-3.3,1.4-5.4,1.4h0Z"></path><path class="cls-5" d="M150.9,58.9v-3.3h16v3.3h-16ZM157.1,80v-34.8h3.7v34.8h-3.7Z"></path><path class="cls-3" d="M49,52.4c0-5.7-4.9-10.4-10.7-9.9-4.9.4-8.8,4.3-9.2,9.2-.4,5.8,4.2,10.7,9.9,10.7s4.9-1,6.6-2.5c.2-.2.4,0,.5.1.3.7.5,1.5.5,2.4h3.1c0-1.9-.6-3.7-1.6-5.2-.1-.2-.1-.4,0-.6.6-1.3.9-2.7.9-4.2ZM32.2,52.9c-.3-4.2,3.3-7.7,7.5-7.3,3.1.3,5.7,2.8,6.1,5.9.1,1,0,1.9-.2,2.8,0,.2-.3.3-.5.2-1.3-.7-2.8-1.1-4.4-1.1v3.1c.9,0,1.9.2,2.7.6.2.1.3.4,0,.6-1.3,1.1-3,1.7-4.9,1.6-3.4-.2-6.2-3-6.4-6.4h0Z"></path></g></g></svg> 